PathFileType        4      (X/Y/Z)      C:\Users\pc\Desktop\IMUTRC\Sujet_02\Sujet_02_velo_80.trc         
DataRate	CameraRate	NumFrames	NumMarkers	Units	OrigDataRate	OrigDataStartFrame	OrigNumFrames
60.0	60.0	4	64	mm	60.0	237	945
Frame#	Time	pHipOrigin			pRightASI			pLeftASI			pRightCSI			pLeftCSI			pRightIschialTub			pLeftIschialTub			pSacrum			pL5SpinalProcess			pL3SpinalProcess			pT12SpinalProcess			pIJ			pT4SpinalProcess			pT8SpinalProcess			pPX			pC7SpinalProcess			pTopOfHead			pRightAuricularis			pLeftAuricularis			pBackOfHead			pRightAcromion			pLeftAcromion			pRightArmLatEpicondyle			pRightArmMedEpicondyle			pLeftArmLatEpicondyle			pLeftArmMedEpicondyle			pRightUlnarStyloid			pRightRadialStyloid			pRightOlecranon			pLeftUlnarStyloid			pLeftRadialStyloid			pLeftOlecranon			pRightTopOfHand			pRightPinky			pRightBallHand			pLeftTopOfHand			pLeftPinky			pLeftBallHand			pRightGreaterTrochanter			pRightKneeLatEpicondyle			pRightKneeMedEpicondyle			pRightPatella			pLeftGreaterTrochanter			pLeftKneeLatEpicondyle			pLeftKneeMedEpicondyle			pLeftPatella			pRightTibialTub			pRightLatMalleolus			pRightMedMalleolus			pLeftTibialTub			pLeftLatMalleolus			pLeftMedMalleolus			pRightHeelFoot			pRightFirstMetatarsal			pRightFifthMetatarsal			pRightPivotFoot			pRightHeelCenter			pRightToe			pLeftHeelFoot			pLeftFirstMetatarsal			pLeftFifthMetatarsal			pLeftPivotFoot			pLeftHeelCenter			pLeftToe			
		X1	Y1	Z1	X2	Y2	Z2	X3	Y3	Z3	X4	Y4	Z4	X5	Y5	Z5	X6	Y6	Z6	X7	Y7	Z7	X8	Y8	Z8	X9	Y9	Z9	X10	Y10	Z10	X11	Y11	Z11	X12	Y12	Z12	X13	Y13	Z13	X14	Y14	Z14	X15	Y15	Z15	X16	Y16	Z16	X17	Y17	Z17	X18	Y18	Z18	X19	Y19	Z19	X20	Y20	Z20	X21	Y21	Z21	X22	Y22	Z22	X23	Y23	Z23	X24	Y24	Z24	X25	Y25	Z25	X26	Y26	Z26	X27	Y27	Z27	X28	Y28	Z28	X29	Y29	Z29	X30	Y30	Z30	X31	Y31	Z31	X32	Y32	Z32	X33	Y33	Z33	X34	Y34	Z34	X35	Y35	Z35	X36	Y36	Z36	X37	Y37	Z37	X38	Y38	Z38	X39	Y39	Z39	X40	Y40	Z40	X41	Y41	Z41	X42	Y42	Z42	X43	Y43	Z43	X44	Y44	Z44	X45	Y45	Z45	X46	Y46	Z46	X47	Y47	Z47	X48	Y48	Z48	X49	Y49	Z49	X50	Y50	Z50	X51	Y51	Z51	X52	Y52	Z52	X53	Y53	Z53	X54	Y54	Z54	X55	Y55	Z55	X56	Y56	Z56	X57	Y57	Z57	X58	Y58	Z58	X59	Y59	Z59	X60	Y60	Z60	X61	Y61	Z61	X62	Y62	Z62	X63	Y63	Z63	X64	Y64	Z64	
237	3.933	0.0	1250.02096	7.654170837655508E-14	61.15308000000001	1368.42734	138.86610000000007	46.119139999999994	1361.87118	-149.6611399999999	1.9781500000000072	1430.65427	114.45008000000009	-10.342900000000007	1425.34152	-122.08008999999991	-45.893069999999994	1182.48128	63.24427000000007	-52.05359	1179.82491	-55.049079999999925	-73.64368	1261.21163	3.5606700000000817	-47.70166	1376.90512	0.5651900000000871	2.3737800000000004	1488.19016	5.030150000000091	59.28797	1584.44127	12.321050000000094	323.7383	1606.87913	13.394900000000078	211.49245	1717.3164	29.22009000000009	133.32728	1665.71495	21.477050000000094	219.97023	1531.99204	2.2042200000000802	264.61989	1747.38427	34.64588000000009	502.7891	1763.15295	45.83655000000008	415.46792	1727.65929	100.32044000000008	420.44156	1758.1228	-25.263799999999918	405.57718	1790.90356	48.71900000000009	234.66505	1702.3955	227.20460000000008	256.76381	1739.18908	-172.8902699999999	302.65688	1421.72434	300.84829000000013	264.45033	1394.76498	256.0290700000001	352.11062	1454.27903	-175.77271999999994	310.3434	1434.94968	-130.16223999999994	395.23428	1157.50008	364.99685000000005	433.89297	1167.33431	322.0992600000001	262.35915	1411.21189	299.7179200000001	465.37381	1201.64107	-230.76526999999993	504.76725	1218.20101	-190.69361999999995	309.15651	1443.65354	-173.51196999999993	576.37626	1068.25727	328.71194	495.83731	1085.32588	367.37063	433.89297	1127.7148	350.01943000000006	654.25883	1152.86555	-151.35669999999996	581.80204	1148.51363	-206.17969999999997	511.26688	1179.42928	-207.42310999999995	20.12061000000001	1243.18221	180.1811600000001	352.84536	946.00763	224.94386000000003	364.48818	936.11688	139.71388000000002	388.79116	979.01447	179.10731000000004	16.67296999999999	1215.14901	-174.0771599999999	384.49575	961.60675	-135.70105999999998	393.25613	975.34076	-50.640629999999966	413.99844	1009.53449	-99.41613999999997	386.92605	884.51544	180.35072000000002	99.13355	574.34159	92.01221000000002	119.9889	580.95426	27.18543000000003	441.63602	929.89984	-96.75976999999997	315.37356	519.236	-144.51795	319.27334	515.84488	-76.30004999999998	7.969120000000001	515.50577	10.399410000000032	151.92189	398.17324	19.385870000000015	116.31519	392.69094	99.58570000000002	152.09144	378.95693	64.99634000000002	37.58484	486.17264	21.533570000000026	211.60548	324.24697	87.66028	235.79543	419.98941	-90.31665999999998	409.53347	353.80618	-92.35132	387.32168	354.82351	-177.41175	421.1763	345.27187	-139.71388	274.28456	403.42947	-100.60302999999999	497.36331	315.93874	-160.00404	
238	3.95	0.0	1250.02096	7.654170837655508E-14	61.096560000000004	1368.3143	138.9791400000001	46.797369999999994	1361.70163	-149.60461999999993	2.147710000000007	1430.71079	114.39356000000008	-9.608150000000007	1425.28501	-122.19311999999991	-46.23217999999999	1182.65083	63.13123000000007	-52.11011	1179.93794	-55.10558999999993	-73.58716	1261.38119	3.3911100000000816	-47.41907	1376.96164	0.4521500000000872	2.6563700000000003	1488.24668	5.086670000000091	59.51404	1584.44127	12.547120000000094	323.96438	1607.33128	14.299200000000079	211.49245	1717.48595	30.06787000000009	133.3838	1665.77147	22.042240000000096	220.36586	1532.27464	2.71289000000008	264.56337	1747.66686	35.60669000000009	502.7891	1763.43554	46.74085000000008	415.46792	1727.88537	101.33778000000007	420.32852	1758.57495	-24.246459999999917	405.57718	1791.24267	49.79285000000009	234.77809	1701.94335	228.05238000000008	257.72463	1739.58471	-171.92944999999992	302.99599	1421.27219	300.4526600000001	264.959	1394.42587	255.40737000000004	352.6758	1454.73117	-175.65967999999995	311.19118	1435.45835	-129.76660999999993	395.9125	1156.93489	363.80996000000005	434.51468	1166.93868	320.96889000000004	262.8113	1410.70322	299.2657700000001	465.37381	1202.0367	-231.66956999999994	504.88028	1218.42708	-191.65442999999993	309.83474	1444.21872	-173.17285999999993	577.05448	1067.80512	327.46853	496.51554	1084.93025	366.18374	434.5712	1127.26265	348.88906000000003	654.31535	1153.20467	-152.09143999999998	581.85856	1148.79622	-206.97095999999996	511.3234	1179.71187	-208.27088999999995	19.781500000000012	1244.9908	180.4072400000001	366.18374	964.77179	230.93483000000003	378.8439	954.4289	145.87440000000004	400.7731	998.96552	184.92872000000003	14.01659999999999	1213.39693	-174.1336799999999	366.57937	938.66022	-138.41394999999997	377.26138	952.50726	-53.57958999999997	399.36013	985.06195	-102.92028999999997	399.64273	902.88397	186.11561000000003	107.32874	597.57072	95.79896000000004	128.35365	604.23991	31.02869000000003	426.14993	907.63153	-99.92480999999997	308.1957	494.19827	-144.63099	312.71718	491.20279	-76.41308999999998	14.69483	542.74772	12.773190000000032	155.42604	421.34585	18.877200000000013	119.70631	414.95926	98.90748000000002	155.08692	401.11221	64.03553000000001	43.51929	512.34073	23.172610000000027	213.188	344.1415	85.34302	230.99135	393.36917	-90.59924999999998	406.08584	330.85964	-92.40784000000001	383.98709	331.48135	-177.46827	418.01126	322.60793	-139.77039	269.8196	377.60049	-100.82910999999999	494.76346	294.85732	-159.94752	
239	3.967	0.0	1250.02096	7.654170837655508E-14	61.096560000000004	1368.14474	139.14869000000007	47.41906999999999	1361.58859	-149.49158999999992	2.373780000000007	1430.71079	114.39356000000008	-8.873410000000007	1425.28501	-122.19311999999991	-46.57128999999999	1182.76387	63.074710000000074	-52.16663	1180.05098	-55.218629999999926	-73.58716	1261.60726	3.221560000000082	-47.07996	1377.01816	0.33911000000008723	2.9954800000000006	1488.24668	5.199710000000091	59.79663	1584.44127	12.999270000000093	324.24697	1607.72691	15.542600000000078	211.49245	1717.65551	31.19824000000009	133.55335	1665.77147	22.833500000000097	220.81801	1532.50071	3.5041500000000805	264.56337	1747.94946	37.019660000000094	502.7891	1763.66162	48.15381000000008	415.58096	1728.11144	102.80726000000007	420.21548	1758.91406	-22.776979999999917	405.63369	1791.52526	51.31885000000008	234.72157	1701.20861	229.2957900000001	258.855	1740.09338	-170.6295299999999	303.10903	1420.36789	300.33962000000014	265.18508	1393.74765	255.06825000000006	353.12795	1455.1268	-175.54663999999994	311.86941	1435.85398	-129.42749999999995	396.25161	1155.97408	362.73611000000005	434.91031	1166.14742	319.95156000000003	262.92433	1409.85544	299.0396900000001	465.14774	1202.26277	-232.17823999999993	504.82376	1218.4836	-192.27613999999994	310.28689	1444.72739	-172.89026999999993	577.50663	1067.1269	326.39467	496.96768	1084.13899	365.10989	434.96683	1126.41487	347.81521000000004	654.03276	1153.09163	-152.60010999999997	581.57597	1148.7397	-207.47962999999996	511.09732	1179.76839	-208.83606999999995	19.329350000000012	1246.40377	180.57679000000007	378.78738	984.10114	235.96498000000003	392.69094	973.81476	151.13063000000002	412.02029	1019.65131	189.95887000000002	11.07763999999999	1211.87093	-174.1336799999999	346.85439	916.50494	-141.40942999999996	359.57107	930.18243	-56.85766999999996	382.91323	961.04157	-106.70703999999998	412.02029	922.43939	191.03273000000002	117.50208	619.55644	99.64222000000002	138.41395	626.4517	34.87195000000003	408.4031	886.09796	-103.31591999999998	297.40065	470.40396	-144.68751	302.54384	467.86063	-76.46960999999999	23.85083	567.50285	15.316530000000034	162.43434	443.61416	19.498900000000017	126.43202	436.32327	99.35963000000001	161.64308	422.53274	64.26160000000002	52.11011	536.41764	25.26380000000003	218.72682	364.03603	84.72132000000002	221.66579	368.84011	-90.65576999999999	397.49502	308.42177	-92.23829000000002	375.45278	308.70437	-177.35524	409.53347	300.2831	-139.60084	260.72011	353.5801	-100.82910999999999	486.73783	273.38027	-159.66493	
240	3.983	0.0	1250.02096	7.654170837655508E-14	61.096560000000004	1367.97519	139.26173000000009	48.040769999999995	1361.47555	-149.3785499999999	2.599850000000007	1430.65427	114.39356000000008	-8.138670000000007	1425.34152	-122.19311999999991	-46.85387999999999	1182.87691	62.96167000000007	-52.22315	1180.22054	-55.38818999999993	-73.53064	1261.77682	3.0520000000000818	-46.79737	1377.07468	0.2825900000000872	3.3345900000000004	1488.24668	5.425780000000091	60.07923	1584.38475	13.564450000000095	324.52956	1608.12254	17.068600000000078	211.49245	1717.82506	32.55469000000009	133.66639	1665.82799	23.794310000000095	221.21364	1532.72679	4.408450000000081	264.50685	1748.17553	38.65869000000009	502.7891	1763.94421	49.84937000000008	415.58096	1728.33752	104.55933000000007	420.15896	1759.3662	-20.968389999999918	405.57718	1791.80786	53.183960000000084	234.4955	1700.30431	230.7087600000001	259.92885	1740.65856	-169.10352999999992	302.93947	1419.35056	300.2831000000001	265.12856	1392.89987	254.78566000000006	353.41055	1455.46592	-175.43360999999993	312.37807	1436.24961	-129.14490999999995	396.36465	1154.78719	361.66226000000006	435.02334	1165.1866	318.93423000000007	262.86782	1408.78159	298.92666000000014	464.75211	1202.37581	-232.51734999999994	504.54117	1218.4836	-192.67176999999995	310.626	1445.17954	-172.66419999999994	577.78922	1066.27912	325.32082	497.19376	1083.17817	364.03603	435.13638	1125.39754	346.79787000000005	653.52409	1152.75252	-152.93921999999998	581.0673	1148.57014	-207.81873999999996	510.70169	1179.76839	-209.17517999999995	18.76416000000001	1247.53414	180.7463500000001	390.59976	1004.05219	240.37343000000004	405.74673	994.16144	155.70863000000003	422.41971	1041.07185	194.53688000000002	8.025639999999989	1210.62752	-174.1336799999999	325.71645	895.59308	-144.46143999999998	340.4678	908.87494	-60.19225999999996	364.88381	938.03851	-110.55029999999996	424.17178	942.89911	195.21510000000004	129.31446	640.35527	103.88111000000004	150.05677	647.47661	38.99781000000004	389.01724	865.29913	-106.76355999999997	283.38405	447.90958	-144.85707	289.14894	445.87491	-76.69567999999998	35.3241	590.11027	18.312010000000033	172.77723	464.92166	21.30750000000002	136.37928	456.83951	100.88563000000002	171.59034	443.21854	65.78760000000001	63.24427	558.62943	27.92017000000003	228.05238	383.93057	85.62562000000001	208.21437	346.40224	-90.7688	384.26968	286.49257	-92.12525000000001	362.28396	286.60561	-177.2422	396.36465	278.3539	-139.43128	247.32521	331.25527	-100.88563	473.62552	251.67714	-159.43885	
